# xmcd
#
# Track frame offsets:
#	150
#	14450
#	26002
#	37027
#	48870
#	59755
#	69930
#	80592
#	93407
#	103487
#	113432
#	123682
#	133042
#	145670
#	156832
#	166852
#	176127
#	185712
#	195567
#	207570
#	220040
#	228542
#	241160
#	253187
#	263462
#	274012
#	284640
#	295480
#	303705
#	313982
#
# Disc length: 4352 seconds
#
# Revision: 1
# Processed by: cddbd v1.5.1PL0 Copyright (c) Steve Scherf et al.
# Submitted via: audiograbber 1.82.02
#
DISCID=d210fe1e
DTITLE=Various Artist - Bump Jump Jive, Vol. 10
DYEAR=1900
DGENRE=Rhythm and Blues
TTITLE0=Jimmy McCracklin - Savoy Jump
TTITLE1=Smiley Lewis - Real Gone Lover
TTITLE2=Joe Houston - Rock That Boogie
TTITLE3=Big Joe Turner - I Got Love For Sale
TTITLE4=Jimmy Liggins - I Ain't Drunk
TTITLE5=Rosco Gordon - T-Model Boogie
TTITLE6=The Robins - That's What The Good Book Says
TTITLE7=Roy Milton - Milton's Boogie
TTITLE8=Daddy Cleanhead - Something's Going On In My Room
TTITLE9=Smiley Gunther - Oop Shoop
TTITLE10=Amos Millburn - Every Day Of The Week
TTITLE11=Rudy Green - Meet Me Baby
TTITLE12=Calvin Boze - Real Street On Saturday Night
TTITLE13=Roy Montrell - That Melloow Saxophone
TTITLE14=Smokey Joe - Start All Over Again
TTITLE15=Big Joe Turner - Rock-A-While
TTITLE16=Gene and Eunice - Move It Over
TTITLE17=Spencer Sisters - Doo Bop Sham Bam
TTITLE18=Tiny Bradshaw - Well Oh Well
TTITLE19=The Four Jacks - Sure Cure For The Blues
TTITLE20=Wynonne Harris - Destination Love
TTITLE21=Roy Brown - Train Time Blues
TTITLE22=Big Joe Turner - Midnight Special Train
TTITLE23=Chuck Willis - Hang Up My Rock 'N' Roll Shoes
TTITLE24=Billy Myles - Honey Bee
TTITLE25=Patti Anne - Shtiggy Boom
TTITLE26=Goree Carter - I'm Your Boogie Man
TTITLE27=Lavern Baker - Voodoo Voodoo
TTITLE28=Royal Jokers - You Tickle Me Baby
TTITLE29=Smiley Lewis - I Hear You Knocking
EXTD=
EXTT0=
EXTT1=
EXTT2=
EXTT3=
EXTT4=
EXTT5=
EXTT6=
EXTT7=
EXTT8=
EXTT9=
EXTT10=
EXTT11=
EXTT12=
EXTT13=
EXTT14=
EXTT15=
EXTT16=
EXTT17=
EXTT18=
EXTT19=
EXTT20=
EXTT21=
EXTT22=
EXTT23=
EXTT24=
EXTT25=
EXTT26=
EXTT27=
EXTT28=
EXTT29=
PLAYORDER=
